<?xml version="1.0" encoding="iso-8859-1"?>
<!-- Generator: Adobe Illustrator 19.0.0, SVG Export Plug-In . SVG Version: 6.00 Build 0)  -->
<svg version="1.1" id="Capa_1" xmlns="http://www.w3.org/2000/svg" xmlns:xlink="http://www.w3.org/1999/xlink" x="0px" y="0px"
	 viewBox="0 0 512 512" style="enable-background:new 0 0 512 512;" xml:space="preserve">
<g>
	<g>
		<rect x="117.333" y="437.333" width="277.333" height="21.333"/>
	</g>
</g>
<g>
	<g>
		<path d="M309.333,0H202.667C196.776,0,192,4.776,192,10.667v42.667C192,59.224,196.776,64,202.667,64h106.667
			C315.224,64,320,59.224,320,53.333V10.667C320,4.776,315.224,0,309.333,0z M298.667,42.667h-85.333V21.333h85.333V42.667z"/>
	</g>
</g>
<g>
	<g>
		<path d="M501.333,42.667H10.667C4.776,42.667,0,47.442,0,53.333V96c0,5.891,4.776,10.667,10.667,10.667H192V85.333H21.333V64
			h469.333v21.333H320v21.333h181.333c5.891,0,10.667-4.776,10.667-10.667V53.333C512,47.442,507.224,42.667,501.333,42.667z"/>
	</g>
</g>
<g>
	<g>
		<path d="M469.333,128v245.333h-74.667c-5.891,0-10.667,4.776-10.667,10.667v117.333c0,5.891,4.776,10.667,10.667,10.667h42.667
			c5.891,0,10.667-4.776,10.667-10.667V394.667h21.333c11.782,0,21.333-9.551,21.333-21.333V128H469.333z M426.667,490.667h-21.333
			v-96h21.333V490.667z"/>
	</g>
</g>
<g>
	<g>
		<path d="M117.333,373.333H42.667V128H21.333v245.333c0,11.782,9.551,21.333,21.333,21.333H64v106.667
			C64,507.224,68.776,512,74.667,512h42.667c5.891,0,10.667-4.776,10.667-10.667V384C128,378.109,123.224,373.333,117.333,373.333z
			 M106.667,490.667H85.333v-96h21.333V490.667z"/>
	</g>
</g>
<g>
	<g>
		<path d="M341.333,352H170.667c-5.891,0-10.667,4.776-10.667,10.667v42.667c0,5.891,4.776,10.667,10.667,10.667h170.667
			c5.891,0,10.667-4.776,10.667-10.667v-42.667C352,356.776,347.224,352,341.333,352z M330.667,394.667H181.333v-21.333h149.333
			V394.667z"/>
	</g>
</g>
<g>
	<g>
		<rect x="117.333" y="373.333" width="53.333" height="21.333"/>
	</g>
</g>
<g>
	<g>
		<rect x="341.333" y="373.333" width="53.333" height="21.333"/>
	</g>
</g>
<g>
	<g>
		<path d="M277.333,128H170.667c-5.891,0-10.667,4.776-10.667,10.667v106.667c0,5.891,4.776,10.667,10.667,10.667h106.667
			c5.891,0,10.667-4.776,10.667-10.667V138.667C288,132.776,283.224,128,277.333,128z M266.667,234.667h-85.333v-85.333h85.333
			V234.667z"/>
	</g>
</g>
<g>
	<g>
		<path d="M277.333,170.667c-41.237,0-74.667,33.429-74.667,74.667c0,41.237,33.429,74.667,74.667,74.667
			c41.218-0.047,74.62-33.449,74.667-74.667C352,204.096,318.571,170.667,277.333,170.667z M277.333,298.667
			c-29.455,0-53.333-23.878-53.333-53.333C224,215.878,247.878,192,277.333,192c29.441,0.035,53.298,23.893,53.333,53.333
			C330.667,274.789,306.789,298.667,277.333,298.667z"/>
	</g>
</g>
<g>
	<g>
		<path d="M384,181.333v-42.667c0-5.891-4.776-10.667-10.667-10.667h-64v21.333h53.333V192c0,5.891,4.776,10.667,10.667,10.667
			h53.333v-21.333H384z"/>
	</g>
</g>
<g>
	<g>
		<path d="M149.333,298.667v-21.333c0-5.891-4.776-10.667-10.667-10.667H96V288h32v21.333c0,5.891,4.776,10.667,10.667,10.667h64
			v-21.333H149.333z"/>
	</g>
</g>
<g>
	<g>
		<rect x="96" y="224" width="21.333" height="21.333"/>
	</g>
</g>
<g>
	<g>
		<rect x="405.333" y="224" width="21.333" height="21.333"/>
	</g>
</g>
<g>
</g>
<g>
</g>
<g>
</g>
<g>
</g>
<g>
</g>
<g>
</g>
<g>
</g>
<g>
</g>
<g>
</g>
<g>
</g>
<g>
</g>
<g>
</g>
<g>
</g>
<g>
</g>
<g>
</g>
</svg>
